<svg xmlns="http://www.w3.org/2000/svg" fill="none" viewBox="0 0 1088 1577">
  <path fill="var(--hanky-bg, #000)" d="m1066.04 1081.4 21.3-1048.7504C1087.7 14.726 1073.27 0 1055.34 0H32.6564C14.729 0 .299054 14.726.662986 32.6497L21.9307 1080.09 499.39 1557.54c10.942 10.95 24.86 17.1 39.149 18.46h12.212c14.289-1.36 28.207-7.51 39.149-18.46l476.14-476.14Z"/>
  <path fill="var(--hanky-pattern, #fff)" d="m11.7201 577.213 3.2826 161.67L318.5 1042.36c10.935 10.94 28.586 10.82 40.513.98 50.417-41.61 115.053-66.601 185.526-66.601 70.424 0 135.018 24.961 185.42 66.511 11.927 9.83 29.57 9.95 40.501-.98l302.52-302.507 3.28-161.67-336.788 336.772c-57.814-31.924-124.326-50.126-194.933-50.126-70.663 0-137.225 18.231-195.071 50.203L11.7201 577.213Z"/>
  <path fill="var(--hanky-pattern, #fff)" d="m219.529 0-100.69 100.689c-29.7986 29.799-29.7986 78.113 0 107.912l371.695 371.695c29.799 29.799 78.113 29.799 107.912 0l371.695-371.695c29.799-29.799 29.799-78.113 0-107.912L869.451 0H677.609l132.018 132.018c12.496 12.496 12.496 32.758 0 45.255L567.118 419.782c-12.497 12.497-32.759 12.496-45.255 0L279.354 177.273c-12.497-12.497-12.497-32.759 0-45.255L411.371 0H219.529ZM670.863 1137.27c20.159-20.16 5.881-54.62-22.628-54.62H440.706c-28.509 0-42.786 34.46-22.627 54.62l103.765 103.77c12.496 12.49 32.758 12.49 45.254 0l103.765-103.77Z"/>
</svg>
