<svg xmlns="http://www.w3.org/2000/svg" fill="none" viewBox="0 0 32 32">
  <path fill="currentColor"
    d="M4.76862 8.66204c-.22295.85982-.1274 1.84706.47774 2.51576.92364 1.0191 2.54797.9554 3.69455 1.6878 2.35689 1.4967 2.61169 5.9869 6.40179 4.8087 1.4013-.414 2.3568-1.6878 3.2168-2.8661.5414-.7643 1.0829-1.4967 1.6243-2.261.5096-.7006 1.0192-1.4012 1.1784-2.2292.3504-1.78334-1.0829-3.56668-2.8027-4.20358-1.3377-.50953-2.9302-.50953-4.0768-1.40119-.5733-.44584-1.051-1.08274-1.7517-1.24197-.3822-.09554-.7962-.03185-1.2103.06369-1.97465.44583-3.79007 1.43304-5.25515 2.80239-.66884.6369-1.24213 1.36934-1.52878 2.26101.03185.03185.03185.06369.03185.06369ZM24.1331 12.8656c-.7644.414-1.4332 1.0509-1.911 1.7833-.7644 1.1146-1.1784 2.4203-1.2421 3.7578-.0637 1.5285.3503 2.2928 1.8154 2.8342.6052.2229 1.2422.414 1.8791.3185.8281-.0956 1.5288-.7006 2.0703-1.3376.828-.9872 1.4332-2.1654 1.7198-3.4074.2867-1.1783.2548-2.5476-.5733-3.4711-.7325-.828-2.0065-1.0509-3.0894-.7325-.2229.0637-.4459.1593-.6688.2548ZM6.67937 19.6168c.1911.9553 1.65618 1.3056 2.51611 1.0827.79624-.1911 1.33772-.9554 1.46512-1.7833.1274-.828-.1593-1.7515-.89182-2.1655-.70069-.414-1.68803-.1911-2.29317.3821-.60514.5732-.85994 1.4968-.79624 2.3247v.1593ZM4.93668 16.9045c-.15925-1.433-.63699-2.5158-2.16577-2.5158-1.01918 0-2.070218.2866-2.77090742.9872v12.6108c.28664542-.2548.57329142-.5414.82808742-.828 2.57981-2.7706 4.49078-6.4964 4.10859-10.2542ZM32 15.222c-.3185.2866-.5414.6369-.7007 1.0827-.3822 1.242.0956 2.6114-.2229 3.8533-.2867 1.0509-1.0829 1.8789-1.911 2.5477-.8281.6687-1.7517 1.2738-2.4524 2.1336-.6689.8598-1.0829 2.0062-.6689 3.0253.5096 1.242 2.1021 1.7833 3.4079 1.4649.9874-.2229 1.8155-.828 2.548-1.4968V15.222ZM10.1192 30.1211c.3185.6051.4777 1.3057.8918 1.8789h8.8541c.0637-.1274.1593-.2548.223-.414.637-1.2101 1.2103-2.5158 1.0192-3.8533-.1911-1.5922-1.4014-2.9297-2.8346-3.6622-2.2614-1.2101-4.9049-1.5922-7.3891-1.1782-.7007.1273-1.43326.2866-2.00655.7324-1.24213.9554-1.30583 2.9298-.44589 4.2673.47774.7642 1.24213 1.4012 1.68804 2.2291ZM26.9676 0c-.1911.127381-.3503.254762-.4777.413989-1.2103 1.178271-1.5288 3.885121-1.6243 5.477391-.0319.54137-.0638 1.08274.191 1.56042.4459.85982 1.5607 1.11458 2.5162 1.24196 1.465.22292 2.962.44584 4.427.66875V.999999c0-.552284-.4477-.999999-1-.999999h-4.0322ZM11.2339 0c.3185.286608.7007.509525 1.0829.732442.9236.477678 1.8472.987208 2.8664 1.210118 1.0192.25477 2.1658.19107 3.0257-.3503C18.8459 1.21012 19.2918.636906 19.674 0h-8.4401ZM3.75824 4.26727c.03185-1.21012.28665-2.45209-.19109-3.566674C3.4716.445834 3.31235.222917 3.1531 0H1C.447717 0 0 .447715 0 1v8.36251c.191097.03185.414044.0637.605141.09554.414039.06369.796239.12738 1.210279.03185.98734-.19108 1.65618-1.17828 1.87912-2.19733.1911-.9872.03185-2.00625.0637-3.0253Z" />
</svg>
